<?xml version="1.0" encoding="UTF-8" standalone="no"?>
<!DOCTYPE svg PUBLIC "-//W3C//DTD SVG 1.1//EN"
 "http://www.w3.org/Graphics/SVG/1.1/DTD/svg11.dtd">
<!-- Generated by graphviz version 2.38.0 (20140413.2041)
 -->
<!-- Title: classes_No_Name Pages: 1 -->
<svg width="2975pt" height="906pt"
 viewBox="0.00 0.00 2974.50 906.00" xmlns="http://www.w3.org/2000/svg" xmlns:xlink="http://www.w3.org/1999/xlink">
<g id="graph0" class="graph" transform="scale(1 1) rotate(0) translate(4 902)">
<title>classes_No_Name</title>
<polygon fill="white" stroke="none" points="-4,4 -4,-902 2970.5,-902 2970.5,4 -4,4"/>
<!-- 0 -->
<g id="node1" class="node"><title>0</title>
<polygon fill="none" stroke="black" points="0,-105.5 0,-189.5 137,-189.5 137,-105.5 0,-105.5"/>
<text text-anchor="middle" x="68.5" y="-174.3" font-family="Times,serif" font-size="14.00">AsyncioLoop</text>
<polyline fill="none" stroke="black" points="0,-166.5 137,-166.5 "/>
<text text-anchor="start" x="8" y="-151.3" font-family="Times,serif" font-size="14.00">exception : NoneType</text>
<text text-anchor="start" x="8" y="-136.3" font-family="Times,serif" font-size="14.00">loop</text>
<polyline fill="none" stroke="black" points="0,-128.5 137,-128.5 "/>
<text text-anchor="start" x="8" y="-113.3" font-family="Times,serif" font-size="14.00">submit()</text>
</g>
<!-- 1 -->
<g id="node2" class="node"><title>1</title>
<polygon fill="none" stroke="black" points="155.5,-90.5 155.5,-204.5 265.5,-204.5 265.5,-90.5 155.5,-90.5"/>
<text text-anchor="middle" x="210.5" y="-189.3" font-family="Times,serif" font-size="14.00">AxisFixer</text>
<polyline fill="none" stroke="black" points="155.5,-181.5 265.5,-181.5 "/>
<text text-anchor="start" x="163.5" y="-166.3" font-family="Times,serif" font-size="14.00">VAR_MAX : int</text>
<text text-anchor="start" x="163.5" y="-151.3" font-family="Times,serif" font-size="14.00">VAR_MIN : int</text>
<text text-anchor="start" x="163.5" y="-136.3" font-family="Times,serif" font-size="14.00">zero_value : int</text>
<polyline fill="none" stroke="black" points="155.5,-128.5 265.5,-128.5 "/>
<text text-anchor="start" x="163.5" y="-113.3" font-family="Times,serif" font-size="14.00">fix()</text>
<text text-anchor="start" x="163.5" y="-98.3" font-family="Times,serif" font-size="14.00">zero()</text>
</g>
<!-- 2 -->
<g id="node3" class="node"><title>2</title>
<polygon fill="none" stroke="black" points="283.5,-60.5 283.5,-234.5 451.5,-234.5 451.5,-60.5 283.5,-60.5"/>
<text text-anchor="middle" x="367.5" y="-219.3" font-family="Times,serif" font-size="14.00">ClientlessWebSocketServer</text>
<polyline fill="none" stroke="black" points="283.5,-211.5 451.5,-211.5 "/>
<text text-anchor="start" x="291.5" y="-196.3" font-family="Times,serif" font-size="14.00">port</text>
<text text-anchor="start" x="291.5" y="-181.3" font-family="Times,serif" font-size="14.00">queue : Queue</text>
<text text-anchor="start" x="291.5" y="-166.3" font-family="Times,serif" font-size="14.00">server : NoneType</text>
<polyline fill="none" stroke="black" points="283.5,-158.5 451.5,-158.5 "/>
<text text-anchor="start" x="291.5" y="-143.3" font-family="Times,serif" font-size="14.00">handle_msg()</text>
<text text-anchor="start" x="291.5" y="-128.3" font-family="Times,serif" font-size="14.00">handle_new_connection()</text>
<text text-anchor="start" x="291.5" y="-113.3" font-family="Times,serif" font-size="14.00">recv()</text>
<text text-anchor="start" x="291.5" y="-98.3" font-family="Times,serif" font-size="14.00">send()</text>
<text text-anchor="start" x="291.5" y="-83.3" font-family="Times,serif" font-size="14.00">start_server()</text>
<text text-anchor="start" x="291.5" y="-68.3" font-family="Times,serif" font-size="14.00">stop_server()</text>
</g>
<!-- 3 -->
<g id="node4" class="node"><title>3</title>
<polygon fill="none" stroke="black" points="470,-105.5 470,-189.5 575,-189.5 575,-105.5 470,-105.5"/>
<text text-anchor="middle" x="522.5" y="-174.3" font-family="Times,serif" font-size="14.00">Component</text>
<polyline fill="none" stroke="black" points="470,-166.5 575,-166.5 "/>
<text text-anchor="start" x="478" y="-151.3" font-family="Times,serif" font-size="14.00">parts : dict</text>
<text text-anchor="start" x="478" y="-136.3" font-family="Times,serif" font-size="14.00">state</text>
<polyline fill="none" stroke="black" points="470,-128.5 575,-128.5 "/>
<text text-anchor="start" x="478" y="-113.3" font-family="Times,serif" font-size="14.00">check_updates()</text>
</g>
<!-- 20 -->
<g id="node21" class="node"><title>20</title>
<polygon fill="none" stroke="black" points="447,-504 447,-618 598,-618 598,-504 447,-504"/>
<text text-anchor="middle" x="522.5" y="-602.8" font-family="Times,serif" font-size="14.00">RobotState</text>
<polyline fill="none" stroke="black" points="447,-595 598,-595 "/>
<text text-anchor="start" x="455" y="-579.8" font-family="Times,serif" font-size="14.00">controller</text>
<text text-anchor="start" x="455" y="-564.8" font-family="Times,serif" font-size="14.00">headlights</text>
<text text-anchor="start" x="455" y="-549.8" font-family="Times,serif" font-size="14.00">motor_left</text>
<text text-anchor="start" x="455" y="-534.8" font-family="Times,serif" font-size="14.00">motor_right</text>
<polyline fill="none" stroke="black" points="447,-527 598,-527 "/>
<text text-anchor="start" x="455" y="-511.8" font-family="Times,serif" font-size="14.00">calculate_motor_speed()</text>
</g>
<!-- 3&#45;&gt;20 -->
<g id="edge3" class="edge"><title>3&#45;&gt;20</title>
<path fill="none" stroke="black" d="M511.891,-189.72C502.303,-221.059 485.768,-263.932 460.5,-295 451.632,-305.904 441.023,-300.551 434.5,-313 403.962,-371.283 435.963,-442.493 469.616,-493.452"/>
<polygon fill="black" stroke="black" points="469.827,-493.762 476.509,-496.474 476.575,-503.685 469.893,-500.973 469.827,-493.762"/>
<text text-anchor="middle" x="467.5" y="-316.8" font-family="Times,serif" font-size="14.00" fill="green">motor_right</text>
</g>
<!-- 3&#45;&gt;20 -->
<g id="edge4" class="edge"><title>3&#45;&gt;20</title>
<path fill="none" stroke="black" d="M522.5,-189.84C522.5,-260.55 522.5,-405.394 522.5,-491.437"/>
<polygon fill="black" stroke="black" points="522.5,-491.689 526.5,-497.689 522.5,-503.689 518.5,-497.689 522.5,-491.689"/>
<text text-anchor="middle" x="550.5" y="-316.8" font-family="Times,serif" font-size="14.00" fill="green">headlights</text>
</g>
<!-- 3&#45;&gt;20 -->
<g id="edge5" class="edge"><title>3&#45;&gt;20</title>
<path fill="none" stroke="black" d="M541.111,-189.748C554.785,-222.423 572.199,-269.633 579.5,-313 589.814,-374.27 571.416,-443.084 552.838,-492.485"/>
<polygon fill="black" stroke="black" points="552.719,-492.791 554.279,-499.831 548.381,-503.979 546.821,-496.938 552.719,-492.791"/>
<text text-anchor="middle" x="610.5" y="-316.8" font-family="Times,serif" font-size="14.00" fill="green">motor_left</text>
</g>
<!-- 4 -->
<g id="node5" class="node"><title>4</title>
<polygon fill="none" stroke="black" points="632.5,-105 632.5,-190 732.5,-190 732.5,-105 632.5,-105"/>
<text text-anchor="middle" x="682.5" y="-174.8" font-family="Times,serif" font-size="14.00">Controller</text>
<polyline fill="none" stroke="black" points="632.5,-167 732.5,-167 "/>
<polyline fill="none" stroke="black" points="632.5,-143 732.5,-143 "/>
<text text-anchor="start" x="640.5" y="-127.8" font-family="Times,serif" font-size="14.00">fix_controller()</text>
<text text-anchor="start" x="640.5" y="-112.8" font-family="Times,serif" font-size="14.00">zero()</text>
</g>
<!-- 13 -->
<g id="node14" class="node"><title>13</title>
<polygon fill="none" stroke="black" points="616.5,-346.5 616.5,-775.5 748.5,-775.5 748.5,-346.5 616.5,-346.5"/>
<text text-anchor="middle" x="682.5" y="-760.3" font-family="Times,serif" font-size="14.00">LowController</text>
<polyline fill="none" stroke="black" points="616.5,-752.5 748.5,-752.5 "/>
<text text-anchor="start" x="624.5" y="-737.3" font-family="Times,serif" font-size="14.00">device</text>
<text text-anchor="start" x="624.5" y="-722.3" font-family="Times,serif" font-size="14.00">haptic</text>
<polyline fill="none" stroke="black" points="616.5,-714.5 748.5,-714.5 "/>
<text text-anchor="start" x="624.5" y="-699.3" font-family="Times,serif" font-size="14.00">formatted_state()</text>
<text text-anchor="start" x="624.5" y="-684.3" font-family="Times,serif" font-size="14.00">get_a()</text>
<text text-anchor="start" x="624.5" y="-669.3" font-family="Times,serif" font-size="14.00">get_b()</text>
<text text-anchor="start" x="624.5" y="-654.3" font-family="Times,serif" font-size="14.00">get_center()</text>
<text text-anchor="start" x="624.5" y="-639.3" font-family="Times,serif" font-size="14.00">get_dpad()</text>
<text text-anchor="start" x="624.5" y="-624.3" font-family="Times,serif" font-size="14.00">get_left_bumper()</text>
<text text-anchor="start" x="624.5" y="-609.3" font-family="Times,serif" font-size="14.00">get_left_stick()</text>
<text text-anchor="start" x="624.5" y="-594.3" font-family="Times,serif" font-size="14.00">get_left_trigger()</text>
<text text-anchor="start" x="624.5" y="-579.3" font-family="Times,serif" font-size="14.00">get_left_x()</text>
<text text-anchor="start" x="624.5" y="-564.3" font-family="Times,serif" font-size="14.00">get_left_y()</text>
<text text-anchor="start" x="624.5" y="-549.3" font-family="Times,serif" font-size="14.00">get_name()</text>
<text text-anchor="start" x="624.5" y="-534.3" font-family="Times,serif" font-size="14.00">get_right_bumper()</text>
<text text-anchor="start" x="624.5" y="-519.3" font-family="Times,serif" font-size="14.00">get_right_stick()</text>
<text text-anchor="start" x="624.5" y="-504.3" font-family="Times,serif" font-size="14.00">get_right_trigger()</text>
<text text-anchor="start" x="624.5" y="-489.3" font-family="Times,serif" font-size="14.00">get_right_x()</text>
<text text-anchor="start" x="624.5" y="-474.3" font-family="Times,serif" font-size="14.00">get_right_y()</text>
<text text-anchor="start" x="624.5" y="-459.3" font-family="Times,serif" font-size="14.00">get_select()</text>
<text text-anchor="start" x="624.5" y="-444.3" font-family="Times,serif" font-size="14.00">get_start()</text>
<text text-anchor="start" x="624.5" y="-429.3" font-family="Times,serif" font-size="14.00">get_x()</text>
<text text-anchor="start" x="624.5" y="-414.3" font-family="Times,serif" font-size="14.00">get_y()</text>
<text text-anchor="start" x="624.5" y="-399.3" font-family="Times,serif" font-size="14.00">init()</text>
<text text-anchor="start" x="624.5" y="-384.3" font-family="Times,serif" font-size="14.00">number_controllers()</text>
<text text-anchor="start" x="624.5" y="-369.3" font-family="Times,serif" font-size="14.00">set_haptic()</text>
<text text-anchor="start" x="624.5" y="-354.3" font-family="Times,serif" font-size="14.00">update()</text>
</g>
<!-- 4&#45;&gt;13 -->
<g id="edge1" class="edge"><title>4&#45;&gt;13</title>
<path fill="none" stroke="black" d="M682.5,-190.221C682.5,-225.881 682.5,-280.194 682.5,-336.301"/>
<polygon fill="none" stroke="black" points="679,-336.423 682.5,-346.423 686,-336.423 679,-336.423"/>
</g>
<!-- 5 -->
<g id="node6" class="node"><title>5</title>
<polygon fill="none" stroke="black" points="751,-0.5 751,-294.5 870,-294.5 870,-0.5 751,-0.5"/>
<text text-anchor="middle" x="810.5" y="-279.3" font-family="Times,serif" font-size="14.00">Controller</text>
<polyline fill="none" stroke="black" points="751,-271.5 870,-271.5 "/>
<text text-anchor="start" x="759" y="-256.3" font-family="Times,serif" font-size="14.00">Maxs : list</text>
<text text-anchor="start" x="759" y="-241.3" font-family="Times,serif" font-size="14.00">Mins : list</text>
<text text-anchor="start" x="759" y="-226.3" font-family="Times,serif" font-size="14.00">PololuCmd : bytes</text>
<text text-anchor="start" x="759" y="-211.3" font-family="Times,serif" font-size="14.00">Targets : list</text>
<text text-anchor="start" x="759" y="-196.3" font-family="Times,serif" font-size="14.00">usb</text>
<polyline fill="none" stroke="black" points="751,-188.5 870,-188.5 "/>
<text text-anchor="start" x="759" y="-173.3" font-family="Times,serif" font-size="14.00">close()</text>
<text text-anchor="start" x="759" y="-158.3" font-family="Times,serif" font-size="14.00">getMax()</text>
<text text-anchor="start" x="759" y="-143.3" font-family="Times,serif" font-size="14.00">getMin()</text>
<text text-anchor="start" x="759" y="-128.3" font-family="Times,serif" font-size="14.00">getMovingState()</text>
<text text-anchor="start" x="759" y="-113.3" font-family="Times,serif" font-size="14.00">getPosition()</text>
<text text-anchor="start" x="759" y="-98.3" font-family="Times,serif" font-size="14.00">isMoving()</text>
<text text-anchor="start" x="759" y="-83.3" font-family="Times,serif" font-size="14.00">runScriptSub()</text>
<text text-anchor="start" x="759" y="-68.3" font-family="Times,serif" font-size="14.00">setAccel()</text>
<text text-anchor="start" x="759" y="-53.3" font-family="Times,serif" font-size="14.00">setRange()</text>
<text text-anchor="start" x="759" y="-38.3" font-family="Times,serif" font-size="14.00">setSpeed()</text>
<text text-anchor="start" x="759" y="-23.3" font-family="Times,serif" font-size="14.00">setTarget()</text>
<text text-anchor="start" x="759" y="-8.3" font-family="Times,serif" font-size="14.00">stopScript()</text>
</g>
<!-- 22 -->
<g id="node23" class="node"><title>22</title>
<polygon fill="none" stroke="black" points="771.5,-474 771.5,-648 849.5,-648 849.5,-474 771.5,-474"/>
<text text-anchor="middle" x="810.5" y="-632.8" font-family="Times,serif" font-size="14.00">Servo</text>
<polyline fill="none" stroke="black" points="771.5,-625 849.5,-625 "/>
<text text-anchor="start" x="779.5" y="-609.8" font-family="Times,serif" font-size="14.00">controller</text>
<text text-anchor="start" x="779.5" y="-594.8" font-family="Times,serif" font-size="14.00">my_id</text>
<text text-anchor="start" x="779.5" y="-579.8" font-family="Times,serif" font-size="14.00">x : int</text>
<text text-anchor="start" x="779.5" y="-564.8" font-family="Times,serif" font-size="14.00">y</text>
<polyline fill="none" stroke="black" points="771.5,-557 849.5,-557 "/>
<text text-anchor="start" x="779.5" y="-541.8" font-family="Times,serif" font-size="14.00">conv()</text>
<text text-anchor="start" x="779.5" y="-526.8" font-family="Times,serif" font-size="14.00">getMyID()</text>
<text text-anchor="start" x="779.5" y="-511.8" font-family="Times,serif" font-size="14.00">getPos()</text>
<text text-anchor="start" x="779.5" y="-496.8" font-family="Times,serif" font-size="14.00">isMoving()</text>
<text text-anchor="start" x="779.5" y="-481.8" font-family="Times,serif" font-size="14.00">setAngle()</text>
</g>
<!-- 5&#45;&gt;22 -->
<g id="edge6" class="edge"><title>5&#45;&gt;22</title>
<path fill="none" stroke="black" d="M810.5,-294.738C810.5,-350.119 810.5,-411.794 810.5,-461.726"/>
<polygon fill="black" stroke="black" points="810.5,-461.828 814.5,-467.828 810.5,-473.828 806.5,-467.828 810.5,-461.828"/>
<text text-anchor="middle" x="837" y="-316.8" font-family="Times,serif" font-size="14.00" fill="green">controller</text>
</g>
<!-- 6 -->
<g id="node7" class="node"><title>6</title>
<polygon fill="none" stroke="black" points="888,-83 888,-212 963,-212 963,-83 888,-83"/>
<text text-anchor="middle" x="925.5" y="-196.8" font-family="Times,serif" font-size="14.00">Controller</text>
<polyline fill="none" stroke="black" points="888,-189 963,-189 "/>
<text text-anchor="start" x="896" y="-173.8" font-family="Times,serif" font-size="14.00">loop</text>
<text text-anchor="start" x="896" y="-158.8" font-family="Times,serif" font-size="14.00">robot</text>
<text text-anchor="start" x="896" y="-143.8" font-family="Times,serif" font-size="14.00">server</text>
<polyline fill="none" stroke="black" points="888,-136 963,-136 "/>
<text text-anchor="start" x="896" y="-120.8" font-family="Times,serif" font-size="14.00">heartbeat()</text>
<text text-anchor="start" x="896" y="-105.8" font-family="Times,serif" font-size="14.00">recv()</text>
<text text-anchor="start" x="896" y="-90.8" font-family="Times,serif" font-size="14.00">run()</text>
</g>
<!-- 7 -->
<g id="node8" class="node"><title>7</title>
<polygon fill="none" stroke="black" points="981,-105.5 981,-189.5 1082,-189.5 1082,-105.5 981,-105.5"/>
<text text-anchor="middle" x="1031.5" y="-174.3" font-family="Times,serif" font-size="14.00">DistanceSensor</text>
<polyline fill="none" stroke="black" points="981,-166.5 1082,-166.5 "/>
<text text-anchor="start" x="989" y="-151.3" font-family="Times,serif" font-size="14.00">channel</text>
<text text-anchor="start" x="989" y="-136.3" font-family="Times,serif" font-size="14.00">spi : NoneType</text>
<polyline fill="none" stroke="black" points="981,-128.5 1082,-128.5 "/>
<text text-anchor="start" x="989" y="-113.3" font-family="Times,serif" font-size="14.00">get()</text>
</g>
<!-- 8 -->
<g id="node9" class="node"><title>8</title>
<polygon fill="none" stroke="black" points="1100.5,-68 1100.5,-227 1354.5,-227 1354.5,-68 1100.5,-68"/>
<text text-anchor="middle" x="1227.5" y="-211.8" font-family="Times,serif" font-size="14.00">EventLoopThread</text>
<polyline fill="none" stroke="black" points="1100.5,-204 1354.5,-204 "/>
<text text-anchor="start" x="1108.5" y="-188.8" font-family="Times,serif" font-size="14.00">context : NoneType, ExitStack</text>
<text text-anchor="start" x="1108.5" y="-173.8" font-family="Times,serif" font-size="14.00">executor : NoneType</text>
<text text-anchor="start" x="1108.5" y="-158.8" font-family="Times,serif" font-size="14.00">loop : NoneType, _UnixSelectorEventLoop</text>
<text text-anchor="start" x="1108.5" y="-143.8" font-family="Times,serif" font-size="14.00">servers : list</text>
<text text-anchor="start" x="1108.5" y="-128.8" font-family="Times,serif" font-size="14.00">servers_to_start</text>
<polyline fill="none" stroke="black" points="1100.5,-121 1354.5,-121 "/>
<text text-anchor="start" x="1108.5" y="-105.8" font-family="Times,serif" font-size="14.00">event_loop_context()</text>
<text text-anchor="start" x="1108.5" y="-90.8" font-family="Times,serif" font-size="14.00">start_loop()</text>
<text text-anchor="start" x="1108.5" y="-75.8" font-family="Times,serif" font-size="14.00">stop_loop()</text>
</g>
<!-- 21 -->
<g id="node22" class="node"><title>21</title>
<polygon fill="none" stroke="black" points="1270,-481.5 1270,-640.5 1455,-640.5 1455,-481.5 1270,-481.5"/>
<text text-anchor="middle" x="1362.5" y="-625.3" font-family="Times,serif" font-size="14.00">Server</text>
<polyline fill="none" stroke="black" points="1270,-617.5 1455,-617.5 "/>
<text text-anchor="start" x="1278" y="-602.3" font-family="Times,serif" font-size="14.00">context : ExitStack, NoneType</text>
<text text-anchor="start" x="1278" y="-587.3" font-family="Times,serif" font-size="14.00">port</text>
<text text-anchor="start" x="1278" y="-572.3" font-family="Times,serif" font-size="14.00">queue : Queue, NoneType</text>
<text text-anchor="start" x="1278" y="-557.3" font-family="Times,serif" font-size="14.00">thread : NoneType</text>
<text text-anchor="start" x="1278" y="-542.3" font-family="Times,serif" font-size="14.00">webserver : NoneType</text>
<polyline fill="none" stroke="black" points="1270,-534.5 1455,-534.5 "/>
<text text-anchor="start" x="1278" y="-519.3" font-family="Times,serif" font-size="14.00">event_loop_context()</text>
<text text-anchor="start" x="1278" y="-504.3" font-family="Times,serif" font-size="14.00">recv()</text>
<text text-anchor="start" x="1278" y="-489.3" font-family="Times,serif" font-size="14.00">send()</text>
</g>
<!-- 8&#45;&gt;21 -->
<g id="edge7" class="edge"><title>8&#45;&gt;21</title>
<path fill="none" stroke="black" d="M1253.37,-227.354C1276.07,-296.548 1309.08,-397.154 1332.84,-469.587"/>
<polygon fill="black" stroke="black" points="1332.98,-470.01 1338.65,-474.464 1336.72,-481.412 1331.05,-476.958 1332.98,-470.01"/>
<text text-anchor="middle" x="1299.5" y="-316.8" font-family="Times,serif" font-size="14.00" fill="green">thread</text>
</g>
<!-- 9 -->
<g id="node10" class="node"><title>9</title>
<polygon fill="none" stroke="black" points="1551,-496.5 1551,-625.5 1624,-625.5 1624,-496.5 1551,-496.5"/>
<text text-anchor="middle" x="1587.5" y="-610.3" font-family="Times,serif" font-size="14.00">GPIO_</text>
<polyline fill="none" stroke="black" points="1551,-602.5 1624,-602.5 "/>
<text text-anchor="start" x="1559" y="-587.3" font-family="Times,serif" font-size="14.00">BCM : int</text>
<text text-anchor="start" x="1559" y="-572.3" font-family="Times,serif" font-size="14.00">OUT : int</text>
<text text-anchor="start" x="1559" y="-557.3" font-family="Times,serif" font-size="14.00">PWM</text>
<polyline fill="none" stroke="black" points="1551,-549.5 1624,-549.5 "/>
<text text-anchor="start" x="1559" y="-534.3" font-family="Times,serif" font-size="14.00">cleanup()</text>
<text text-anchor="start" x="1559" y="-519.3" font-family="Times,serif" font-size="14.00">setmode()</text>
<text text-anchor="start" x="1559" y="-504.3" font-family="Times,serif" font-size="14.00">setup()</text>
</g>
<!-- 10 -->
<g id="node11" class="node"><title>10</title>
<polygon fill="none" stroke="black" points="1644,-105 1644,-190 1709,-190 1709,-105 1644,-105"/>
<text text-anchor="middle" x="1676.5" y="-174.8" font-family="Times,serif" font-size="14.00">HatFixer</text>
<polyline fill="none" stroke="black" points="1644,-167 1709,-167 "/>
<polyline fill="none" stroke="black" points="1644,-143 1709,-143 "/>
<text text-anchor="start" x="1652" y="-127.8" font-family="Times,serif" font-size="14.00">fix()</text>
<text text-anchor="start" x="1652" y="-112.8" font-family="Times,serif" font-size="14.00">zero()</text>
</g>
<!-- 11 -->
<g id="node12" class="node"><title>11</title>
<polygon fill="none" stroke="black" points="1727,-112.5 1727,-182.5 1828,-182.5 1828,-112.5 1727,-112.5"/>
<text text-anchor="middle" x="1777.5" y="-167.3" font-family="Times,serif" font-size="14.00">InterruptModes</text>
<polyline fill="none" stroke="black" points="1727,-159.5 1828,-159.5 "/>
<polyline fill="none" stroke="black" points="1727,-135.5 1828,-135.5 "/>
<text text-anchor="middle" x="1777.5" y="-120.3" font-family="Times,serif" font-size="14.00"> </text>
</g>
<!-- 12 -->
<g id="node13" class="node"><title>12</title>
<polygon fill="none" stroke="black" points="1846.5,-105.5 1846.5,-189.5 1900.5,-189.5 1900.5,-105.5 1846.5,-105.5"/>
<text text-anchor="middle" x="1873.5" y="-174.3" font-family="Times,serif" font-size="14.00">LED</text>
<polyline fill="none" stroke="black" points="1846.5,-166.5 1900.5,-166.5 "/>
<text text-anchor="start" x="1854.5" y="-151.3" font-family="Times,serif" font-size="14.00">pin</text>
<polyline fill="none" stroke="black" points="1846.5,-143.5 1900.5,-143.5 "/>
<text text-anchor="start" x="1854.5" y="-128.3" font-family="Times,serif" font-size="14.00">get()</text>
<text text-anchor="start" x="1854.5" y="-113.3" font-family="Times,serif" font-size="14.00">set()</text>
</g>
<!-- 14 -->
<g id="node15" class="node"><title>14</title>
<polygon fill="none" stroke="black" points="1642.5,-481.5 1642.5,-640.5 1792.5,-640.5 1792.5,-481.5 1642.5,-481.5"/>
<text text-anchor="middle" x="1717.5" y="-625.3" font-family="Times,serif" font-size="14.00">Motor</text>
<polyline fill="none" stroke="black" points="1642.5,-617.5 1792.5,-617.5 "/>
<text text-anchor="start" x="1650.5" y="-602.3" font-family="Times,serif" font-size="14.00">dir_pin_a</text>
<text text-anchor="start" x="1650.5" y="-587.3" font-family="Times,serif" font-size="14.00">dir_pin_b</text>
<text text-anchor="start" x="1650.5" y="-572.3" font-family="Times,serif" font-size="14.00">speed_pin</text>
<text text-anchor="start" x="1650.5" y="-557.3" font-family="Times,serif" font-size="14.00">speed_pwm : NoneType</text>
<polyline fill="none" stroke="black" points="1642.5,-549.5 1792.5,-549.5 "/>
<text text-anchor="start" x="1650.5" y="-534.3" font-family="Times,serif" font-size="14.00">get()</text>
<text text-anchor="start" x="1650.5" y="-519.3" font-family="Times,serif" font-size="14.00">set()</text>
<text text-anchor="start" x="1650.5" y="-504.3" font-family="Times,serif" font-size="14.00">set_brake()</text>
<text text-anchor="start" x="1650.5" y="-489.3" font-family="Times,serif" font-size="14.00">set_feq()</text>
</g>
<!-- 15 -->
<g id="node16" class="node"><title>15</title>
<polygon fill="none" stroke="black" points="1571.5,-105 1571.5,-190 1625.5,-190 1625.5,-105 1571.5,-105"/>
<text text-anchor="middle" x="1598.5" y="-174.8" font-family="Times,serif" font-size="14.00">PWM</text>
<polyline fill="none" stroke="black" points="1571.5,-167 1625.5,-167 "/>
<polyline fill="none" stroke="black" points="1571.5,-143 1625.5,-143 "/>
<text text-anchor="start" x="1579.5" y="-127.8" font-family="Times,serif" font-size="14.00">start()</text>
<text text-anchor="start" x="1579.5" y="-112.8" font-family="Times,serif" font-size="14.00">stop()</text>
</g>
<!-- 15&#45;&gt;9 -->
<g id="edge8" class="edge"><title>15&#45;&gt;9</title>
<path fill="none" stroke="black" d="M1597.38,-190.221C1595.54,-259.136 1591.84,-397.718 1589.52,-484.277"/>
<polygon fill="black" stroke="black" points="1589.52,-484.399 1593.36,-490.504 1589.2,-496.395 1585.36,-490.29 1589.52,-484.399"/>
<text text-anchor="middle" x="1610.5" y="-316.8" font-family="Times,serif" font-size="14.00" fill="green">PWM</text>
</g>
<!-- 15&#45;&gt;14 -->
<g id="edge9" class="edge"><title>15&#45;&gt;14</title>
<path fill="none" stroke="black" d="M1608.37,-190.016C1615.51,-219.432 1625.61,-259.768 1635.5,-295 1651.93,-353.501 1672.08,-418.708 1688.3,-469.8"/>
<polygon fill="black" stroke="black" points="1688.37,-470.037 1694,-474.542 1692.01,-481.472 1686.38,-476.968 1688.37,-470.037"/>
<text text-anchor="middle" x="1676.5" y="-316.8" font-family="Times,serif" font-size="14.00" fill="green">speed_pwm</text>
</g>
<!-- 16 -->
<g id="node17" class="node"><title>16</title>
<polygon fill="none" stroke="black" points="1918.5,-112.5 1918.5,-182.5 1990.5,-182.5 1990.5,-112.5 1918.5,-112.5"/>
<text text-anchor="middle" x="1954.5" y="-167.3" font-family="Times,serif" font-size="14.00">PinModes</text>
<polyline fill="none" stroke="black" points="1918.5,-159.5 1990.5,-159.5 "/>
<polyline fill="none" stroke="black" points="1918.5,-135.5 1990.5,-135.5 "/>
<text text-anchor="middle" x="1954.5" y="-120.3" font-family="Times,serif" font-size="14.00"> </text>
</g>
<!-- 17 -->
<g id="node18" class="node"><title>17</title>
<polygon fill="none" stroke="black" points="2008.5,-112.5 2008.5,-182.5 2084.5,-182.5 2084.5,-112.5 2008.5,-112.5"/>
<text text-anchor="middle" x="2046.5" y="-167.3" font-family="Times,serif" font-size="14.00">PullModes</text>
<polyline fill="none" stroke="black" points="2008.5,-159.5 2084.5,-159.5 "/>
<polyline fill="none" stroke="black" points="2008.5,-135.5 2084.5,-135.5 "/>
<text text-anchor="middle" x="2046.5" y="-120.3" font-family="Times,serif" font-size="14.00"> </text>
</g>
<!-- 18 -->
<g id="node19" class="node"><title>18</title>
<polygon fill="none" stroke="black" points="2250,-496.5 2250,-625.5 2369,-625.5 2369,-496.5 2250,-496.5"/>
<text text-anchor="middle" x="2309.5" y="-610.3" font-family="Times,serif" font-size="14.00">Robot</text>
<polyline fill="none" stroke="black" points="2250,-602.5 2369,-602.5 "/>
<text text-anchor="start" x="2258" y="-587.3" font-family="Times,serif" font-size="14.00">head_lights</text>
<text text-anchor="start" x="2258" y="-572.3" font-family="Times,serif" font-size="14.00">motor_left</text>
<text text-anchor="start" x="2258" y="-557.3" font-family="Times,serif" font-size="14.00">motor_left_speed</text>
<text text-anchor="start" x="2258" y="-542.3" font-family="Times,serif" font-size="14.00">motor_right</text>
<text text-anchor="start" x="2258" y="-527.3" font-family="Times,serif" font-size="14.00">motor_right_speed</text>
<polyline fill="none" stroke="black" points="2250,-519.5 2369,-519.5 "/>
<text text-anchor="middle" x="2309.5" y="-504.3" font-family="Times,serif" font-size="14.00"> </text>
</g>
<!-- 26 -->
<g id="node27" class="node"><title>26</title>
<polygon fill="none" stroke="black" points="2217,-813.5 2217,-897.5 2402,-897.5 2402,-813.5 2217,-813.5"/>
<text text-anchor="middle" x="2309.5" y="-882.3" font-family="Times,serif" font-size="14.00">WPRobotBase</text>
<polyline fill="none" stroke="black" points="2217,-874.5 2402,-874.5 "/>
<text text-anchor="start" x="2225" y="-859.3" font-family="Times,serif" font-size="14.00">context : ExitStack, NoneType</text>
<text text-anchor="start" x="2225" y="-844.3" font-family="Times,serif" font-size="14.00">devices : list</text>
<polyline fill="none" stroke="black" points="2217,-836.5 2402,-836.5 "/>
<text text-anchor="start" x="2225" y="-821.3" font-family="Times,serif" font-size="14.00">attach_device()</text>
</g>
<!-- 18&#45;&gt;26 -->
<g id="edge2" class="edge"><title>18&#45;&gt;26</title>
<path fill="none" stroke="black" d="M2309.5,-625.829C2309.5,-679.029 2309.5,-753.834 2309.5,-803.206"/>
<polygon fill="none" stroke="black" points="2306,-803.338 2309.5,-813.338 2313,-803.338 2306,-803.338"/>
</g>
<!-- 19 -->
<g id="node20" class="node"><title>19</title>
<polygon fill="none" stroke="black" points="2483,-105.5 2483,-189.5 2668,-189.5 2668,-105.5 2483,-105.5"/>
<text text-anchor="middle" x="2575.5" y="-174.3" font-family="Times,serif" font-size="14.00">RobotBase</text>
<polyline fill="none" stroke="black" points="2483,-166.5 2668,-166.5 "/>
<text text-anchor="start" x="2491" y="-151.3" font-family="Times,serif" font-size="14.00">context : NoneType, ExitStack</text>
<text text-anchor="start" x="2491" y="-136.3" font-family="Times,serif" font-size="14.00">devices : list</text>
<polyline fill="none" stroke="black" points="2483,-128.5 2668,-128.5 "/>
<text text-anchor="start" x="2491" y="-113.3" font-family="Times,serif" font-size="14.00">attach_device()</text>
</g>
<!-- 23 -->
<g id="node24" class="node"><title>23</title>
<polygon fill="none" stroke="black" points="2686.5,-98 2686.5,-197 2796.5,-197 2796.5,-98 2686.5,-98"/>
<text text-anchor="middle" x="2741.5" y="-181.8" font-family="Times,serif" font-size="14.00">TriggerFixer</text>
<polyline fill="none" stroke="black" points="2686.5,-174 2796.5,-174 "/>
<text text-anchor="start" x="2694.5" y="-158.8" font-family="Times,serif" font-size="14.00">VAR_MAX : int</text>
<text text-anchor="start" x="2694.5" y="-143.8" font-family="Times,serif" font-size="14.00">VAR_MIN : int</text>
<polyline fill="none" stroke="black" points="2686.5,-136 2796.5,-136 "/>
<text text-anchor="start" x="2694.5" y="-120.8" font-family="Times,serif" font-size="14.00">fix()</text>
<text text-anchor="start" x="2694.5" y="-105.8" font-family="Times,serif" font-size="14.00">zero()</text>
</g>
<!-- 24 -->
<g id="node25" class="node"><title>24</title>
<polygon fill="none" stroke="black" points="2102.5,-105.5 2102.5,-189.5 2166.5,-189.5 2166.5,-105.5 2102.5,-105.5"/>
<text text-anchor="middle" x="2134.5" y="-174.3" font-family="Times,serif" font-size="14.00">WPLED</text>
<polyline fill="none" stroke="black" points="2102.5,-166.5 2166.5,-166.5 "/>
<text text-anchor="start" x="2110.5" y="-151.3" font-family="Times,serif" font-size="14.00">pin</text>
<polyline fill="none" stroke="black" points="2102.5,-143.5 2166.5,-143.5 "/>
<text text-anchor="start" x="2110.5" y="-128.3" font-family="Times,serif" font-size="14.00">get()</text>
<text text-anchor="start" x="2110.5" y="-113.3" font-family="Times,serif" font-size="14.00">set()</text>
</g>
<!-- 24&#45;&gt;18 -->
<g id="edge10" class="edge"><title>24&#45;&gt;18</title>
<path fill="none" stroke="black" d="M2132.97,-189.682C2132.9,-226.905 2136.08,-282.65 2152.5,-328 2173.51,-386.03 2212.27,-443.537 2246.02,-486.78"/>
<polygon fill="black" stroke="black" points="2246.14,-486.928 2253,-489.153 2253.58,-496.34 2246.72,-494.116 2246.14,-486.928"/>
<text text-anchor="middle" x="2184" y="-316.8" font-family="Times,serif" font-size="14.00" fill="green">head_lights</text>
</g>
<!-- 25 -->
<g id="node26" class="node"><title>25</title>
<polygon fill="none" stroke="black" points="2220,-75.5 2220,-219.5 2297,-219.5 2297,-75.5 2220,-75.5"/>
<text text-anchor="middle" x="2258.5" y="-204.3" font-family="Times,serif" font-size="14.00">WPMotor</text>
<polyline fill="none" stroke="black" points="2220,-196.5 2297,-196.5 "/>
<text text-anchor="start" x="2228" y="-181.3" font-family="Times,serif" font-size="14.00">dir_pin_a</text>
<text text-anchor="start" x="2228" y="-166.3" font-family="Times,serif" font-size="14.00">dir_pin_b</text>
<text text-anchor="start" x="2228" y="-151.3" font-family="Times,serif" font-size="14.00">speed_pin</text>
<polyline fill="none" stroke="black" points="2220,-143.5 2297,-143.5 "/>
<text text-anchor="start" x="2228" y="-128.3" font-family="Times,serif" font-size="14.00">get()</text>
<text text-anchor="start" x="2228" y="-113.3" font-family="Times,serif" font-size="14.00">set()</text>
<text text-anchor="start" x="2228" y="-98.3" font-family="Times,serif" font-size="14.00">set_brake()</text>
<text text-anchor="start" x="2228" y="-83.3" font-family="Times,serif" font-size="14.00">set_feq()</text>
</g>
<!-- 25&#45;&gt;18 -->
<g id="edge11" class="edge"><title>25&#45;&gt;18</title>
<path fill="none" stroke="black" d="M2231.06,-219.552C2221.64,-252.477 2214.93,-292.165 2221.5,-328 2231.49,-382.491 2253.65,-440.782 2273.23,-485.303"/>
<polygon fill="black" stroke="black" points="2273.25,-485.356 2279.35,-489.205 2278.14,-496.315 2272.05,-492.466 2273.25,-485.356"/>
<text text-anchor="middle" x="2254.5" y="-316.8" font-family="Times,serif" font-size="14.00" fill="green">motor_right</text>
</g>
<!-- 25&#45;&gt;18 -->
<g id="edge12" class="edge"><title>25&#45;&gt;18</title>
<path fill="none" stroke="black" d="M2272.4,-219.548C2277.69,-248.455 2283.43,-282.239 2287.5,-313 2295.08,-370.247 2300.76,-435.313 2304.44,-484.288"/>
<polygon fill="black" stroke="black" points="2304.45,-484.411 2308.88,-490.1 2305.34,-496.378 2300.91,-490.69 2304.45,-484.411"/>
<text text-anchor="middle" x="2317.5" y="-316.8" font-family="Times,serif" font-size="14.00" fill="green">motor_left</text>
</g>
<!-- 27 -->
<g id="node28" class="node"><title>27</title>
<polygon fill="none" stroke="black" points="2349.5,-98 2349.5,-197 2465.5,-197 2465.5,-98 2349.5,-98"/>
<text text-anchor="middle" x="2407.5" y="-181.8" font-family="Times,serif" font-size="14.00">WPSpeedEncoder</text>
<polyline fill="none" stroke="black" points="2349.5,-174 2465.5,-174 "/>
<text text-anchor="start" x="2357.5" y="-158.8" font-family="Times,serif" font-size="14.00">pin_a</text>
<text text-anchor="start" x="2357.5" y="-143.8" font-family="Times,serif" font-size="14.00">pin_b</text>
<polyline fill="none" stroke="black" points="2349.5,-136 2465.5,-136 "/>
<text text-anchor="start" x="2357.5" y="-120.8" font-family="Times,serif" font-size="14.00">callback_a()</text>
<text text-anchor="start" x="2357.5" y="-105.8" font-family="Times,serif" font-size="14.00">callback_b()</text>
</g>
<!-- 27&#45;&gt;18 -->
<g id="edge13" class="edge"><title>27&#45;&gt;18</title>
<path fill="none" stroke="black" d="M2395.87,-197.32C2378.94,-268.413 2347.35,-401.05 2327.43,-484.708"/>
<polygon fill="black" stroke="black" points="2327.42,-484.756 2329.92,-491.519 2324.64,-496.429 2322.14,-489.666 2327.42,-484.756"/>
<text text-anchor="middle" x="2418" y="-316.8" font-family="Times,serif" font-size="14.00" fill="green">motor_right_speed</text>
</g>
<!-- 27&#45;&gt;18 -->
<g id="edge14" class="edge"><title>27&#45;&gt;18</title>
<path fill="none" stroke="black" d="M2433.02,-197.126C2454.78,-241.275 2481.39,-303.16 2473.5,-328 2454.36,-388.219 2413.32,-446.263 2377.07,-489.23"/>
<polygon fill="black" stroke="black" points="2376.99,-489.326 2376.13,-496.485 2369.19,-498.439 2370.05,-491.28 2376.99,-489.326"/>
<text text-anchor="middle" x="2522.5" y="-316.8" font-family="Times,serif" font-size="14.00" fill="green">motor_left_speed</text>
</g>
<!-- 28 -->
<g id="node29" class="node"><title>28</title>
<polygon fill="none" stroke="black" points="1373,-90.5 1373,-204.5 1486,-204.5 1486,-90.5 1373,-90.5"/>
<text text-anchor="middle" x="1429.5" y="-189.3" font-family="Times,serif" font-size="14.00">WebsocketServer</text>
<polyline fill="none" stroke="black" points="1373,-181.5 1486,-181.5 "/>
<text text-anchor="start" x="1381" y="-166.3" font-family="Times,serif" font-size="14.00">port</text>
<text text-anchor="start" x="1381" y="-151.3" font-family="Times,serif" font-size="14.00">queue</text>
<polyline fill="none" stroke="black" points="1373,-143.5 1486,-143.5 "/>
<text text-anchor="start" x="1381" y="-128.3" font-family="Times,serif" font-size="14.00">broadcast()</text>
<text text-anchor="start" x="1381" y="-113.3" font-family="Times,serif" font-size="14.00">handle()</text>
<text text-anchor="start" x="1381" y="-98.3" font-family="Times,serif" font-size="14.00">server()</text>
</g>
<!-- 28&#45;&gt;21 -->
<g id="edge15" class="edge"><title>28&#45;&gt;21</title>
<path fill="none" stroke="black" d="M1420.32,-204.854C1409.23,-273.004 1390.41,-388.597 1377.26,-469.335"/>
<polygon fill="black" stroke="black" points="1377.21,-469.638 1380.2,-476.203 1375.28,-481.483 1372.3,-474.918 1377.21,-469.638"/>
<text text-anchor="middle" x="1429.5" y="-316.8" font-family="Times,serif" font-size="14.00" fill="green">webserver</text>
</g>
<!-- 29 -->
<g id="node30" class="node"><title>29</title>
<polygon fill="none" stroke="black" points="2814.5,-98 2814.5,-197 2966.5,-197 2966.5,-98 2814.5,-98"/>
<text text-anchor="middle" x="2890.5" y="-181.8" font-family="Times,serif" font-size="14.00">Wrapper</text>
<polyline fill="none" stroke="black" points="2814.5,-174 2966.5,-174 "/>
<text text-anchor="start" x="2822.5" y="-158.8" font-family="Times,serif" font-size="14.00">library : NoneType, bool</text>
<text text-anchor="start" x="2822.5" y="-143.8" font-family="Times,serif" font-size="14.00">library_name</text>
<polyline fill="none" stroke="black" points="2814.5,-136 2966.5,-136 "/>
<text text-anchor="start" x="2822.5" y="-120.8" font-family="Times,serif" font-size="14.00">load()</text>
<text text-anchor="start" x="2822.5" y="-105.8" font-family="Times,serif" font-size="14.00">wrap()</text>
</g>
</g>
</svg>
